<svg height="512pt" viewBox="0 0 512 512" width="512pt" xmlns="http://www.w3.org/2000/svg" xmlns:xlink="http://www.w3.org/1999/xlink"><linearGradient id="a" gradientUnits="userSpaceOnUse" x1="0" x2="512" y1="256" y2="256"><stop offset="0" stop-color="#00f38d"/><stop offset="1" stop-color="#009eff"/></linearGradient><path d="m512 256c0 141.386719-114.613281 256-256 256s-256-114.613281-256-256 114.613281-256 256-256 256 114.613281 256 256zm0 0" fill="url(#a)"/><g fill="#fff"><path d="m369.007812 146.34375h-226.015624c-30.328126 0-55 24.671875-55 55v109.3125c0 30.328125 24.671874 55 55 55h226.015624c30.328126 0 55-24.671875 55-55v-109.3125c0-30.328125-24.671874-55-55-55zm25 164.3125c0 13.785156-11.214843 25-25 25h-226.015624c-13.785157 0-25-11.214844-25-25v-109.3125c0-13.785156 11.214843-25 25-25h226.015624c13.785157 0 25 11.214844 25 25zm0 0"/><path d="m352.042969 247.289062c0-29.71875-24.179688-53.898437-53.898438-53.898437-29.722656 0-53.902343 24.179687-53.902343 53.898437 0 29.722657 24.179687 53.902344 53.902343 53.902344 10.949219 0 21.140625-3.292968 29.65625-8.921875l30.578125 26.320313 19.570313-22.738282-30.6875-26.414062c3.0625-6.761719 4.78125-14.253906 4.78125-22.148438zm-53.902344 23.902344c-13.175781 0-23.898437-10.722656-23.898437-23.902344 0-13.175781 10.722656-23.898437 23.898437-23.898437 13.179687 0 23.902344 10.722656 23.902344 23.898437 0 13.179688-10.722657 23.902344-23.902344 23.902344zm0 0"/></g></svg>